HIERARCHY
ROOT hip
{
	OFFSET 0.000000 0.000000 0.000000
	CHANNELS 6 Xposition Yposition Zposition Xrotation Zrotation Yrotation 
	JOINT abdomen
	{
		OFFSET 0.000000 3.422050 0.000000
		CHANNELS 3 Xrotation Zrotation Yrotation 
		JOINT chest
		{
			OFFSET 0.000000 8.486693 -0.684411
			CHANNELS 3 Xrotation Zrotation Yrotation 
			JOINT neck
			{
				OFFSET 0.000000 10.266162 -0.273764
				CHANNELS 3 Xrotation Zrotation Yrotation 
				JOINT head
				{
					OFFSET 0.000000 3.148285 0.000000
					CHANNELS 3 Xrotation Zrotation Yrotation 
					End Site
					{
						OFFSET 0.000000 3.148289 0.000000
					}
				}
			}
			JOINT lCollar
			{
				OFFSET 3.422053 6.707223 -0.821293
				CHANNELS 3 Yrotation Zrotation Xrotation 
				JOINT lShldr
				{
					OFFSET 3.285171 0.000000 0.000000
					CHANNELS 3 Zrotation Yrotation Xrotation 
					JOINT lForeArm
					{
						OFFSET 10.129278 0.000000 0.000000
						CHANNELS 3 Yrotation Zrotation Xrotation 
						JOINT lHand
						{
							OFFSET 8.486692 0.000000 0.000000
							CHANNELS 3 Zrotation Yrotation Xrotation 
							End Site
							{
								OFFSET 4.106464 0.000000 0.000000
							}
						}
					}
				}
			}
			JOINT rCollar
			{
				OFFSET -3.558935 6.707223 -0.821293
				CHANNELS 3 Yrotation Zrotation Xrotation 
				JOINT rShldr
				{
					OFFSET -3.148289 0.000000 0.000000
					CHANNELS 3 Zrotation Yrotation Xrotation 
					JOINT rForeArm
					{
						OFFSET -10.266159 0.000000 0.000000
						CHANNELS 3 Yrotation Zrotation Xrotation 
						JOINT rHand
						{
							OFFSET -8.349810 0.000000 0.000000
							CHANNELS 3 Zrotation Yrotation Xrotation 
							End Site
							{
								OFFSET -4.106464 0.000000 0.000000
							}
						}
					}
				}
			}
		}
	}
	JOINT lThigh
	{
		OFFSET 5.338403 -1.642589 1.368821
		CHANNELS 3 Xrotation Zrotation Yrotation 
		JOINT lShin
		{
			OFFSET -2.053232 -20.121670 0.000000
			CHANNELS 3 Xrotation Zrotation Yrotation 
			JOINT lFoot
			{
				OFFSET 0.000000 -19.300380 -1.231939
				CHANNELS 3 Xrotation Yrotation Zrotation 
				End Site
				{
					OFFSET 0.000000 -2.463878 4.653993
				}
			}
		}
	}
	JOINT rThigh
	{
		OFFSET -5.338403 -1.642589 1.368821
		CHANNELS 3 Xrotation Zrotation Yrotation 
		JOINT rShin
		{
			OFFSET 2.053232 -20.121670 0.000000
			CHANNELS 3 Xrotation Zrotation Yrotation 
			JOINT rFoot
			{
				OFFSET 0.000000 -19.300380 -1.231939
				CHANNELS 3 Xrotation Yrotation Zrotation 
				End Site
				{
					OFFSET 0.000000 -2.463878 4.653993
				}
			}
		}
	}
}
MOTION
Frames: 6
Frame Time: 0.033264
0.820026 23.148125 2.867221 21.650867 0.000000 0.000000 -0.859645 0.609928 -0.240468 18.614155 0.569104 -1.139476 -11.190430 -7.502922 -15.932708 -16.703478 0.000000 0.000000 -33.500973 -19.838707 3.014860 -16.236891 -6.013612 -5.510006 -76.041901 -28.473799 -16.658291 29.093382 -1.438732 -23.211742 5.763079 -0.195943 -11.188907 25.455318 32.989071 25.782328 26.708069 -0.247729 0.019448 -5.508663 2.884839 -15.380784 -14.012122 10.711897 10.030077 85.582993 1.239380 -0.579559 55.350391 7.192994 -15.364744 -14.010045 -10.743369 -10.069367 85.587425 -1.287089 0.595175 55.545399 -7.166882 15.368848 
0.820026 23.148125 2.778760 22.303570 0.000000 0.000000 -1.613893 0.609848 -0.240515 18.011963 0.569033 -1.139502 -10.905202 -7.435793 -15.866568 -15.944706 0.000000 0.000000 -33.588680 -20.182465 2.991573 -16.236891 -6.013612 -5.510006 -75.453865 -28.403597 -16.384449 28.544594 -1.397513 -23.371897 6.325870 0.150176 -11.054647 25.110718 32.641415 25.590509 26.324677 -0.289542 0.017854 -5.003804 3.037561 -15.095130 -14.978422 10.749815 10.031607 85.940071 1.270641 -0.572890 55.350391 7.192994 -15.364744 -14.976469 -10.781104 -10.070144 85.944290 -1.318328 0.588541 55.545399 -7.166882 15.368848 
0.820026 23.148125 2.690300 22.956184 0.000000 0.000000 -2.368010 0.609766 -0.240561 17.409840 0.568963 -1.139528 -10.619741 -7.368946 -15.800055 -15.186345 0.000000 0.000000 -33.676735 -20.526173 2.967671 -16.236891 -6.013612 -5.510006 -74.866676 -28.330923 -16.111643 27.995743 -1.357834 -23.532410 6.887788 0.497547 -10.923813 24.768852 32.292824 25.401930 25.941292 -0.331341 0.015981 -4.498171 3.187745 -14.808128 -15.944563 10.787739 10.032481 86.297150 1.301859 -0.566025 55.350391 7.192994 -15.364744 -15.942734 -10.818834 -10.070270 86.301147 -1.349524 0.581713 55.545399 -7.166882 15.368848 
0.820026 23.148125 2.601840 23.608675 0.000000 0.000000 -3.121931 0.609684 -0.240605 16.807816 0.568892 -1.139553 -10.334047 -7.302382 -15.733171 -14.428442 0.000000 0.000000 -33.765137 -20.869829 2.943153 -16.236891 -6.013612 -5.510006 -74.280357 -28.255816 -15.839923 27.446888 -1.319699 -23.693275 7.448835 0.846111 -10.796402 24.429678 31.943336 25.216539 25.557930 -0.373124 0.013828 -3.991796 3.335371 -14.519817 -16.910418 10.825656 10.032706 86.654190 1.333031 -0.558967 55.350391 7.192994 -15.364744 -16.908709 -10.856544 -10.069749 86.657982 -1.380675 0.574691 55.545399 -7.166882 15.368848 
0.820026 23.148125 2.513380 24.261000 0.000000 0.000000 -3.875589 0.609602 -0.240649 16.205923 0.568820 -1.139578 -10.048126 -7.236106 -15.665920 -13.671076 0.000000 0.000000 -33.853901 -21.213430 2.918012 -16.236891 -6.013612 -5.510006 -73.694969 -28.178274 -15.569327 26.898046 -1.283114 -23.854467 8.009013 1.195808 -10.672434 24.093155 31.592962 25.034304 25.174610 -0.414888 0.011396 -3.484712 3.480412 -14.230221 -17.875837 10.863552 10.032282 87.011238 1.364157 -0.551715 55.350391 7.192994 -15.364744 -17.874256 -10.894222 -10.068583 87.014816 -1.411779 0.567476 55.545399 -7.166882 15.368848 
0.820026 23.148125 2.424920 24.913107 0.000000 0.000000 -4.628922 0.609519 -0.240692 15.604199 0.568749 -1.139601 -9.761979 -7.170118 -15.598300 -12.914300 0.000000 0.000000 -33.943024 -21.556955 2.892240 -16.236891 -6.013612 -5.510006 -73.110565 -28.098318 -15.299901 26.349241 -1.248084 -24.015947 8.568320 1.546578 -10.551913 23.759245 31.241747 24.855188 24.791321 -0.456630 0.008685 -2.976956 3.622853 -13.939389 -18.840704 10.901410 10.031210 87.368233 1.395233 -0.544270 55.350391 7.192994 -15.364744 -18.839241 -10.931845 -10.066770 87.371620 -1.442835 0.560067 55.545399 -7.166882 15.368848 
